<mxfile host="app.diagrams.net" modified="2021-09-10T17:32:20.995Z" agent="5.0 (X11; Linux x86_64) AppleWebKit/537.36 (KHTML, like Gecko) Chrome/92.0.4515.159 Safari/537.36" etag="fESA0wFsj72X-X2i5M5S" version="15.1.1" type="github">
  <diagram id="DpS8SnAMy1LJo5Vyk3Rj" name="Page-1">
    <mxGraphModel dx="1485" dy="584" grid="1" gridSize="10" guides="1" tooltips="1" connect="1" arrows="1" fold="1" page="1" pageScale="1" pageWidth="827" pageHeight="1169" math="0" shadow="0">
      <root>
        <mxCell id="0" />
        <mxCell id="1" parent="0" />
        <mxCell id="F4eid25Qo9Cwc09JnTA2-38" style="edgeStyle=orthogonalEdgeStyle;rounded=0;orthogonalLoop=1;jettySize=auto;html=1;exitX=1;exitY=0.5;exitDx=0;exitDy=0;entryX=0;entryY=0.5;entryDx=0;entryDy=0;" edge="1" parent="1" source="F4eid25Qo9Cwc09JnTA2-2" target="F4eid25Qo9Cwc09JnTA2-8">
          <mxGeometry relative="1" as="geometry" />
        </mxCell>
        <mxCell id="F4eid25Qo9Cwc09JnTA2-2" value="" style="ellipse;whiteSpace=wrap;html=1;aspect=fixed;" vertex="1" parent="1">
          <mxGeometry x="120" y="80" width="80" height="80" as="geometry" />
        </mxCell>
        <mxCell id="F4eid25Qo9Cwc09JnTA2-3" value="" style="endArrow=none;html=1;entryX=0.5;entryY=0;entryDx=0;entryDy=0;exitX=0.5;exitY=1;exitDx=0;exitDy=0;" edge="1" parent="1" source="F4eid25Qo9Cwc09JnTA2-2" target="F4eid25Qo9Cwc09JnTA2-2">
          <mxGeometry width="50" height="50" relative="1" as="geometry">
            <mxPoint x="110" y="310" as="sourcePoint" />
            <mxPoint x="160" y="260" as="targetPoint" />
          </mxGeometry>
        </mxCell>
        <mxCell id="F4eid25Qo9Cwc09JnTA2-4" value="" style="endArrow=none;html=1;" edge="1" parent="1">
          <mxGeometry width="50" height="50" relative="1" as="geometry">
            <mxPoint x="160" y="120" as="sourcePoint" />
            <mxPoint x="200" y="120" as="targetPoint" />
          </mxGeometry>
        </mxCell>
        <mxCell id="F4eid25Qo9Cwc09JnTA2-5" value="0" style="text;html=1;strokeColor=none;fillColor=none;align=center;verticalAlign=middle;whiteSpace=wrap;rounded=0;" vertex="1" parent="1">
          <mxGeometry x="160" y="130" width="40" height="20" as="geometry" />
        </mxCell>
        <mxCell id="F4eid25Qo9Cwc09JnTA2-6" value="0" style="text;html=1;align=center;verticalAlign=middle;resizable=0;points=[];autosize=1;strokeColor=none;fillColor=none;" vertex="1" parent="1">
          <mxGeometry x="130" y="110" width="20" height="20" as="geometry" />
        </mxCell>
        <mxCell id="F4eid25Qo9Cwc09JnTA2-7" value="0" style="text;html=1;align=center;verticalAlign=middle;resizable=0;points=[];autosize=1;strokeColor=none;fillColor=none;" vertex="1" parent="1">
          <mxGeometry x="170" y="90" width="20" height="20" as="geometry" />
        </mxCell>
        <mxCell id="F4eid25Qo9Cwc09JnTA2-42" style="edgeStyle=orthogonalEdgeStyle;rounded=0;orthogonalLoop=1;jettySize=auto;html=1;exitX=1;exitY=0.5;exitDx=0;exitDy=0;" edge="1" parent="1" source="F4eid25Qo9Cwc09JnTA2-8" target="F4eid25Qo9Cwc09JnTA2-14">
          <mxGeometry relative="1" as="geometry" />
        </mxCell>
        <mxCell id="F4eid25Qo9Cwc09JnTA2-44" style="edgeStyle=orthogonalEdgeStyle;rounded=0;orthogonalLoop=1;jettySize=auto;html=1;exitX=0.5;exitY=1;exitDx=0;exitDy=0;entryX=0;entryY=0.5;entryDx=0;entryDy=0;" edge="1" parent="1" source="F4eid25Qo9Cwc09JnTA2-8" target="F4eid25Qo9Cwc09JnTA2-26">
          <mxGeometry relative="1" as="geometry" />
        </mxCell>
        <mxCell id="F4eid25Qo9Cwc09JnTA2-8" value="" style="ellipse;whiteSpace=wrap;html=1;aspect=fixed;" vertex="1" parent="1">
          <mxGeometry x="280" y="80" width="80" height="80" as="geometry" />
        </mxCell>
        <mxCell id="F4eid25Qo9Cwc09JnTA2-9" value="" style="endArrow=none;html=1;entryX=0.5;entryY=0;entryDx=0;entryDy=0;exitX=0.5;exitY=1;exitDx=0;exitDy=0;" edge="1" parent="1" source="F4eid25Qo9Cwc09JnTA2-8" target="F4eid25Qo9Cwc09JnTA2-8">
          <mxGeometry width="50" height="50" relative="1" as="geometry">
            <mxPoint x="270" y="310" as="sourcePoint" />
            <mxPoint x="320" y="260" as="targetPoint" />
          </mxGeometry>
        </mxCell>
        <mxCell id="F4eid25Qo9Cwc09JnTA2-10" value="" style="endArrow=none;html=1;" edge="1" parent="1">
          <mxGeometry width="50" height="50" relative="1" as="geometry">
            <mxPoint x="320" y="120" as="sourcePoint" />
            <mxPoint x="360" y="120" as="targetPoint" />
          </mxGeometry>
        </mxCell>
        <mxCell id="F4eid25Qo9Cwc09JnTA2-11" value="3" style="text;html=1;strokeColor=none;fillColor=none;align=center;verticalAlign=middle;whiteSpace=wrap;rounded=0;" vertex="1" parent="1">
          <mxGeometry x="320" y="130" width="40" height="20" as="geometry" />
        </mxCell>
        <mxCell id="F4eid25Qo9Cwc09JnTA2-12" value="1" style="text;html=1;align=center;verticalAlign=middle;resizable=0;points=[];autosize=1;strokeColor=none;fillColor=none;" vertex="1" parent="1">
          <mxGeometry x="290" y="110" width="20" height="20" as="geometry" />
        </mxCell>
        <mxCell id="F4eid25Qo9Cwc09JnTA2-13" value="3" style="text;html=1;align=center;verticalAlign=middle;resizable=0;points=[];autosize=1;strokeColor=none;fillColor=none;" vertex="1" parent="1">
          <mxGeometry x="330" y="90" width="20" height="20" as="geometry" />
        </mxCell>
        <mxCell id="F4eid25Qo9Cwc09JnTA2-14" value="" style="ellipse;whiteSpace=wrap;html=1;aspect=fixed;" vertex="1" parent="1">
          <mxGeometry x="440" y="80" width="80" height="80" as="geometry" />
        </mxCell>
        <mxCell id="F4eid25Qo9Cwc09JnTA2-15" value="" style="endArrow=none;html=1;entryX=0.5;entryY=0;entryDx=0;entryDy=0;exitX=0.5;exitY=1;exitDx=0;exitDy=0;" edge="1" parent="1" source="F4eid25Qo9Cwc09JnTA2-14" target="F4eid25Qo9Cwc09JnTA2-14">
          <mxGeometry width="50" height="50" relative="1" as="geometry">
            <mxPoint x="430" y="310" as="sourcePoint" />
            <mxPoint x="480" y="260" as="targetPoint" />
          </mxGeometry>
        </mxCell>
        <mxCell id="F4eid25Qo9Cwc09JnTA2-16" value="" style="endArrow=none;html=1;" edge="1" parent="1">
          <mxGeometry width="50" height="50" relative="1" as="geometry">
            <mxPoint x="480" y="120" as="sourcePoint" />
            <mxPoint x="520" y="120" as="targetPoint" />
          </mxGeometry>
        </mxCell>
        <mxCell id="F4eid25Qo9Cwc09JnTA2-17" value="6" style="text;html=1;strokeColor=none;fillColor=none;align=center;verticalAlign=middle;whiteSpace=wrap;rounded=0;" vertex="1" parent="1">
          <mxGeometry x="480" y="130" width="40" height="20" as="geometry" />
        </mxCell>
        <mxCell id="F4eid25Qo9Cwc09JnTA2-18" value="2" style="text;html=1;align=center;verticalAlign=middle;resizable=0;points=[];autosize=1;strokeColor=none;fillColor=none;" vertex="1" parent="1">
          <mxGeometry x="450" y="110" width="20" height="20" as="geometry" />
        </mxCell>
        <mxCell id="F4eid25Qo9Cwc09JnTA2-19" value="6" style="text;html=1;align=center;verticalAlign=middle;resizable=0;points=[];autosize=1;strokeColor=none;fillColor=none;" vertex="1" parent="1">
          <mxGeometry x="490" y="90" width="20" height="20" as="geometry" />
        </mxCell>
        <mxCell id="F4eid25Qo9Cwc09JnTA2-55" style="edgeStyle=orthogonalEdgeStyle;rounded=0;orthogonalLoop=1;jettySize=auto;html=1;exitX=1;exitY=0.5;exitDx=0;exitDy=0;entryX=0;entryY=0.5;entryDx=0;entryDy=0;" edge="1" parent="1" source="F4eid25Qo9Cwc09JnTA2-20" target="F4eid25Qo9Cwc09JnTA2-49">
          <mxGeometry relative="1" as="geometry" />
        </mxCell>
        <mxCell id="F4eid25Qo9Cwc09JnTA2-20" value="" style="ellipse;whiteSpace=wrap;html=1;aspect=fixed;" vertex="1" parent="1">
          <mxGeometry x="640" y="280" width="80" height="80" as="geometry" />
        </mxCell>
        <mxCell id="F4eid25Qo9Cwc09JnTA2-21" value="" style="endArrow=none;html=1;entryX=0.5;entryY=0;entryDx=0;entryDy=0;exitX=0.5;exitY=1;exitDx=0;exitDy=0;" edge="1" parent="1" source="F4eid25Qo9Cwc09JnTA2-20" target="F4eid25Qo9Cwc09JnTA2-20">
          <mxGeometry width="50" height="50" relative="1" as="geometry">
            <mxPoint x="630" y="510" as="sourcePoint" />
            <mxPoint x="680" y="460" as="targetPoint" />
          </mxGeometry>
        </mxCell>
        <mxCell id="F4eid25Qo9Cwc09JnTA2-22" value="" style="endArrow=none;html=1;" edge="1" parent="1">
          <mxGeometry width="50" height="50" relative="1" as="geometry">
            <mxPoint x="680" y="320" as="sourcePoint" />
            <mxPoint x="720" y="320" as="targetPoint" />
          </mxGeometry>
        </mxCell>
        <mxCell id="F4eid25Qo9Cwc09JnTA2-23" value="12" style="text;html=1;strokeColor=none;fillColor=none;align=center;verticalAlign=middle;whiteSpace=wrap;rounded=0;" vertex="1" parent="1">
          <mxGeometry x="680" y="330" width="40" height="20" as="geometry" />
        </mxCell>
        <mxCell id="F4eid25Qo9Cwc09JnTA2-24" value="4" style="text;html=1;align=center;verticalAlign=middle;resizable=0;points=[];autosize=1;strokeColor=none;fillColor=none;" vertex="1" parent="1">
          <mxGeometry x="650" y="310" width="20" height="20" as="geometry" />
        </mxCell>
        <mxCell id="F4eid25Qo9Cwc09JnTA2-25" value="12" style="text;html=1;align=center;verticalAlign=middle;resizable=0;points=[];autosize=1;strokeColor=none;fillColor=none;" vertex="1" parent="1">
          <mxGeometry x="685" y="290" width="30" height="20" as="geometry" />
        </mxCell>
        <mxCell id="F4eid25Qo9Cwc09JnTA2-45" style="edgeStyle=orthogonalEdgeStyle;rounded=0;orthogonalLoop=1;jettySize=auto;html=1;exitX=1;exitY=0.5;exitDx=0;exitDy=0;entryX=0;entryY=0.5;entryDx=0;entryDy=0;" edge="1" parent="1" source="F4eid25Qo9Cwc09JnTA2-26" target="F4eid25Qo9Cwc09JnTA2-20">
          <mxGeometry relative="1" as="geometry" />
        </mxCell>
        <mxCell id="F4eid25Qo9Cwc09JnTA2-47" style="edgeStyle=orthogonalEdgeStyle;rounded=0;orthogonalLoop=1;jettySize=auto;html=1;exitX=0.5;exitY=1;exitDx=0;exitDy=0;entryX=0;entryY=0.5;entryDx=0;entryDy=0;" edge="1" parent="1" source="F4eid25Qo9Cwc09JnTA2-26" target="F4eid25Qo9Cwc09JnTA2-32">
          <mxGeometry relative="1" as="geometry" />
        </mxCell>
        <mxCell id="F4eid25Qo9Cwc09JnTA2-26" value="" style="ellipse;whiteSpace=wrap;html=1;aspect=fixed;" vertex="1" parent="1">
          <mxGeometry x="440" y="280" width="80" height="80" as="geometry" />
        </mxCell>
        <mxCell id="F4eid25Qo9Cwc09JnTA2-27" value="" style="endArrow=none;html=1;entryX=0.5;entryY=0;entryDx=0;entryDy=0;exitX=0.5;exitY=1;exitDx=0;exitDy=0;" edge="1" parent="1" source="F4eid25Qo9Cwc09JnTA2-26" target="F4eid25Qo9Cwc09JnTA2-26">
          <mxGeometry width="50" height="50" relative="1" as="geometry">
            <mxPoint x="430" y="510" as="sourcePoint" />
            <mxPoint x="480" y="460" as="targetPoint" />
          </mxGeometry>
        </mxCell>
        <mxCell id="F4eid25Qo9Cwc09JnTA2-28" value="" style="endArrow=none;html=1;" edge="1" parent="1">
          <mxGeometry width="50" height="50" relative="1" as="geometry">
            <mxPoint x="480" y="320" as="sourcePoint" />
            <mxPoint x="520" y="320" as="targetPoint" />
          </mxGeometry>
        </mxCell>
        <mxCell id="F4eid25Qo9Cwc09JnTA2-29" value="8" style="text;html=1;strokeColor=none;fillColor=none;align=center;verticalAlign=middle;whiteSpace=wrap;rounded=0;" vertex="1" parent="1">
          <mxGeometry x="480" y="330" width="40" height="20" as="geometry" />
        </mxCell>
        <mxCell id="F4eid25Qo9Cwc09JnTA2-30" value="3" style="text;html=1;align=center;verticalAlign=middle;resizable=0;points=[];autosize=1;strokeColor=none;fillColor=none;" vertex="1" parent="1">
          <mxGeometry x="450" y="310" width="20" height="20" as="geometry" />
        </mxCell>
        <mxCell id="F4eid25Qo9Cwc09JnTA2-31" value="8" style="text;html=1;align=center;verticalAlign=middle;resizable=0;points=[];autosize=1;strokeColor=none;fillColor=none;" vertex="1" parent="1">
          <mxGeometry x="490" y="290" width="20" height="20" as="geometry" />
        </mxCell>
        <mxCell id="F4eid25Qo9Cwc09JnTA2-32" value="" style="ellipse;whiteSpace=wrap;html=1;aspect=fixed;" vertex="1" parent="1">
          <mxGeometry x="640" y="440" width="80" height="80" as="geometry" />
        </mxCell>
        <mxCell id="F4eid25Qo9Cwc09JnTA2-33" value="" style="endArrow=none;html=1;entryX=0.5;entryY=0;entryDx=0;entryDy=0;exitX=0.5;exitY=1;exitDx=0;exitDy=0;" edge="1" parent="1" source="F4eid25Qo9Cwc09JnTA2-32" target="F4eid25Qo9Cwc09JnTA2-32">
          <mxGeometry width="50" height="50" relative="1" as="geometry">
            <mxPoint x="630" y="670" as="sourcePoint" />
            <mxPoint x="680" y="620" as="targetPoint" />
          </mxGeometry>
        </mxCell>
        <mxCell id="F4eid25Qo9Cwc09JnTA2-34" value="" style="endArrow=none;html=1;" edge="1" parent="1">
          <mxGeometry width="50" height="50" relative="1" as="geometry">
            <mxPoint x="680" y="480" as="sourcePoint" />
            <mxPoint x="720" y="480" as="targetPoint" />
          </mxGeometry>
        </mxCell>
        <mxCell id="F4eid25Qo9Cwc09JnTA2-35" value="15" style="text;html=1;strokeColor=none;fillColor=none;align=center;verticalAlign=middle;whiteSpace=wrap;rounded=0;" vertex="1" parent="1">
          <mxGeometry x="680" y="490" width="40" height="20" as="geometry" />
        </mxCell>
        <mxCell id="F4eid25Qo9Cwc09JnTA2-36" value="5" style="text;html=1;align=center;verticalAlign=middle;resizable=0;points=[];autosize=1;strokeColor=none;fillColor=none;" vertex="1" parent="1">
          <mxGeometry x="650" y="470" width="20" height="20" as="geometry" />
        </mxCell>
        <mxCell id="F4eid25Qo9Cwc09JnTA2-37" value="11" style="text;html=1;align=center;verticalAlign=middle;resizable=0;points=[];autosize=1;strokeColor=none;fillColor=none;" vertex="1" parent="1">
          <mxGeometry x="685" y="450" width="30" height="20" as="geometry" />
        </mxCell>
        <mxCell id="F4eid25Qo9Cwc09JnTA2-39" value="A(3)" style="text;html=1;align=center;verticalAlign=middle;resizable=0;points=[];autosize=1;strokeColor=none;fillColor=none;" vertex="1" parent="1">
          <mxGeometry x="210" y="90" width="40" height="20" as="geometry" />
        </mxCell>
        <mxCell id="F4eid25Qo9Cwc09JnTA2-41" value="C(5)" style="text;html=1;align=center;verticalAlign=middle;resizable=0;points=[];autosize=1;strokeColor=none;fillColor=none;" vertex="1" parent="1">
          <mxGeometry x="334" y="290" width="40" height="20" as="geometry" />
        </mxCell>
        <mxCell id="F4eid25Qo9Cwc09JnTA2-43" value="B(3)" style="text;html=1;align=center;verticalAlign=middle;resizable=0;points=[];autosize=1;strokeColor=none;fillColor=none;" vertex="1" parent="1">
          <mxGeometry x="374" y="100" width="40" height="20" as="geometry" />
        </mxCell>
        <mxCell id="F4eid25Qo9Cwc09JnTA2-46" value="D(4)" style="text;html=1;align=center;verticalAlign=middle;resizable=0;points=[];autosize=1;strokeColor=none;fillColor=none;" vertex="1" parent="1">
          <mxGeometry x="560" y="300" width="40" height="20" as="geometry" />
        </mxCell>
        <mxCell id="F4eid25Qo9Cwc09JnTA2-48" value="E(3)" style="text;html=1;align=center;verticalAlign=middle;resizable=0;points=[];autosize=1;strokeColor=none;fillColor=none;" vertex="1" parent="1">
          <mxGeometry x="500" y="450" width="40" height="20" as="geometry" />
        </mxCell>
        <mxCell id="F4eid25Qo9Cwc09JnTA2-71" style="edgeStyle=orthogonalEdgeStyle;rounded=0;orthogonalLoop=1;jettySize=auto;html=1;exitX=1;exitY=0.5;exitDx=0;exitDy=0;" edge="1" parent="1" source="F4eid25Qo9Cwc09JnTA2-49" target="F4eid25Qo9Cwc09JnTA2-65">
          <mxGeometry relative="1" as="geometry" />
        </mxCell>
        <mxCell id="F4eid25Qo9Cwc09JnTA2-49" value="" style="ellipse;whiteSpace=wrap;html=1;aspect=fixed;" vertex="1" parent="1">
          <mxGeometry x="800" y="280" width="80" height="80" as="geometry" />
        </mxCell>
        <mxCell id="F4eid25Qo9Cwc09JnTA2-50" value="" style="endArrow=none;html=1;entryX=0.5;entryY=0;entryDx=0;entryDy=0;exitX=0.5;exitY=1;exitDx=0;exitDy=0;" edge="1" parent="1" source="F4eid25Qo9Cwc09JnTA2-49" target="F4eid25Qo9Cwc09JnTA2-49">
          <mxGeometry width="50" height="50" relative="1" as="geometry">
            <mxPoint x="790" y="510" as="sourcePoint" />
            <mxPoint x="840" y="460" as="targetPoint" />
          </mxGeometry>
        </mxCell>
        <mxCell id="F4eid25Qo9Cwc09JnTA2-51" value="" style="endArrow=none;html=1;" edge="1" parent="1">
          <mxGeometry width="50" height="50" relative="1" as="geometry">
            <mxPoint x="840" y="320" as="sourcePoint" />
            <mxPoint x="880" y="320" as="targetPoint" />
          </mxGeometry>
        </mxCell>
        <mxCell id="F4eid25Qo9Cwc09JnTA2-52" value="15" style="text;html=1;strokeColor=none;fillColor=none;align=center;verticalAlign=middle;whiteSpace=wrap;rounded=0;" vertex="1" parent="1">
          <mxGeometry x="840" y="330" width="40" height="20" as="geometry" />
        </mxCell>
        <mxCell id="F4eid25Qo9Cwc09JnTA2-53" value="6" style="text;html=1;align=center;verticalAlign=middle;resizable=0;points=[];autosize=1;strokeColor=none;fillColor=none;" vertex="1" parent="1">
          <mxGeometry x="810" y="310" width="20" height="20" as="geometry" />
        </mxCell>
        <mxCell id="F4eid25Qo9Cwc09JnTA2-54" value="15" style="text;html=1;align=center;verticalAlign=middle;resizable=0;points=[];autosize=1;strokeColor=none;fillColor=none;" vertex="1" parent="1">
          <mxGeometry x="845" y="290" width="30" height="20" as="geometry" />
        </mxCell>
        <mxCell id="F4eid25Qo9Cwc09JnTA2-56" value="F(3)" style="text;html=1;align=center;verticalAlign=middle;resizable=0;points=[];autosize=1;strokeColor=none;fillColor=none;" vertex="1" parent="1">
          <mxGeometry x="740" y="290" width="40" height="20" as="geometry" />
        </mxCell>
        <mxCell id="F4eid25Qo9Cwc09JnTA2-57" value="" style="html=1;labelBackgroundColor=#ffffff;startArrow=none;startFill=0;startSize=6;endArrow=classic;endFill=1;endSize=6;jettySize=auto;orthogonalLoop=1;strokeWidth=1;dashed=1;fontSize=14;exitX=0.5;exitY=0;exitDx=0;exitDy=0;" edge="1" parent="1" source="F4eid25Qo9Cwc09JnTA2-32">
          <mxGeometry width="60" height="60" relative="1" as="geometry">
            <mxPoint x="380" y="440" as="sourcePoint" />
            <mxPoint x="840" y="360" as="targetPoint" />
          </mxGeometry>
        </mxCell>
        <mxCell id="F4eid25Qo9Cwc09JnTA2-65" value="" style="ellipse;whiteSpace=wrap;html=1;aspect=fixed;" vertex="1" parent="1">
          <mxGeometry x="1000" y="280" width="80" height="80" as="geometry" />
        </mxCell>
        <mxCell id="F4eid25Qo9Cwc09JnTA2-66" value="" style="endArrow=none;html=1;entryX=0.5;entryY=0;entryDx=0;entryDy=0;exitX=0.5;exitY=1;exitDx=0;exitDy=0;" edge="1" parent="1" source="F4eid25Qo9Cwc09JnTA2-65" target="F4eid25Qo9Cwc09JnTA2-65">
          <mxGeometry width="50" height="50" relative="1" as="geometry">
            <mxPoint x="990" y="510" as="sourcePoint" />
            <mxPoint x="1040" y="460" as="targetPoint" />
          </mxGeometry>
        </mxCell>
        <mxCell id="F4eid25Qo9Cwc09JnTA2-67" value="" style="endArrow=none;html=1;" edge="1" parent="1">
          <mxGeometry width="50" height="50" relative="1" as="geometry">
            <mxPoint x="1040" y="320" as="sourcePoint" />
            <mxPoint x="1080" y="320" as="targetPoint" />
          </mxGeometry>
        </mxCell>
        <mxCell id="F4eid25Qo9Cwc09JnTA2-68" value="18" style="text;html=1;strokeColor=none;fillColor=none;align=center;verticalAlign=middle;whiteSpace=wrap;rounded=0;" vertex="1" parent="1">
          <mxGeometry x="1040" y="330" width="40" height="20" as="geometry" />
        </mxCell>
        <mxCell id="F4eid25Qo9Cwc09JnTA2-69" value="7" style="text;html=1;align=center;verticalAlign=middle;resizable=0;points=[];autosize=1;strokeColor=none;fillColor=none;" vertex="1" parent="1">
          <mxGeometry x="1010" y="310" width="20" height="20" as="geometry" />
        </mxCell>
        <mxCell id="F4eid25Qo9Cwc09JnTA2-70" value="18" style="text;html=1;align=center;verticalAlign=middle;resizable=0;points=[];autosize=1;strokeColor=none;fillColor=none;" vertex="1" parent="1">
          <mxGeometry x="1045" y="290" width="30" height="20" as="geometry" />
        </mxCell>
        <mxCell id="F4eid25Qo9Cwc09JnTA2-72" value="G(3)" style="text;html=1;align=center;verticalAlign=middle;resizable=0;points=[];autosize=1;strokeColor=none;fillColor=none;" vertex="1" parent="1">
          <mxGeometry x="920" y="290" width="40" height="20" as="geometry" />
        </mxCell>
        <mxCell id="F4eid25Qo9Cwc09JnTA2-73" value="" style="html=1;labelBackgroundColor=#ffffff;startArrow=none;startFill=0;startSize=6;endArrow=classic;endFill=1;endSize=6;jettySize=auto;orthogonalLoop=1;strokeWidth=1;dashed=1;fontSize=14;entryX=0.375;entryY=0;entryDx=0;entryDy=0;entryPerimeter=0;" edge="1" parent="1" target="F4eid25Qo9Cwc09JnTA2-65">
          <mxGeometry width="60" height="60" relative="1" as="geometry">
            <mxPoint x="520" y="120" as="sourcePoint" />
            <mxPoint x="850" y="370" as="targetPoint" />
          </mxGeometry>
        </mxCell>
      </root>
    </mxGraphModel>
  </diagram>
</mxfile>
